# xmcd
#
# Track frame offsets:
#	150
#	11271
#	23897
#	34426
#	44007
#	55653
#	66133
#	76321
#	87628
#	99971
#
# Disc length: 1487 seconds
#
# Revision: 1
# Processed by: cddbd v1.5.2PL0 Copyright (c) Steve Scherf et al.
# Submitted via: audiograbber 1.83.01
#
DISCID=7905cd0a
DTITLE=George Jones - I Get Lonely In A Hurry
DYEAR=1965
DGENRE=Country
TTITLE0=I Get Lonely In A Hurry
TTITLE1=Book Of Memories
TTITLE2=I'm Gonna Change Everything
TTITLE3=The Race Is On
TTITLE4=Least Of All
TTITLE5=I've Been Known To Cry
TTITLE6=Love's Gonna Live Here
TTITLE7=Gold And Silver
TTITLE8=She's Mine
TTITLE9=Where Does A Little Tear Come From
EXTD=
EXTT0=
EXTT1=
EXTT2=
EXTT3=
EXTT4=
EXTT5=
EXTT6=
EXTT7=
EXTT8=
EXTT9=
PLAYORDER=
